# xmcd
# Track frame offsets:
# 150
# 13338
# 33596
# 48097
# 62025
# 81503
# 102219
# 118576
#
# Disc length: 1824 seconds
# Revision: 0
# Processed by: cddbd v1.5.1PL0 Copyright (c) Steve Scherf et al.
# Submitted via: VisiTrax 2.9.10.228 - For more info visit www.synapsa.com
#
DISCID=66071e08
DTITLE=Various Artist - New Country 24 April-May 2004
DYEAR=2004
DGENRE=
TTITLE0=Aaron Kantor - Copy machine
TTITLE1=Lee Browning - From this day on
TTITLE2=Johnny Lee - I'd marry you again
TTITLE3=Rodrigo Haddad - Santa Fe
TTITLE4=Becky McLean - She believes
TTITLE5=Tommy Wood - The book
TTITLE6=Bobby Boyd - The ghost of the Alamo
TTITLE7=Hannah Jo - The one God made for me
EXTD=
EXTT0=
EXTT1=
EXTT2=
EXTT3=
EXTT4=
EXTT5=
EXTT6=
EXTT7=
PLAYORDER=
